<?xml version="1.0" standalone="no"?>
<!DOCTYPE svg PUBLIC "-//W3C//DTD SVG 20010904//EN"
 "http://www.w3.org/TR/2001/REC-SVG-20010904/DTD/svg10.dtd">
<svg version="1.0" xmlns="http://www.w3.org/2000/svg"
 width="654.000000pt" height="1500.000000pt" viewBox="0 0 654.000000 1500.000000"
 preserveAspectRatio="xMidYMid meet">

<g transform="translate(0.000000,1500.000000) scale(0.100000,-0.100000)"
fill="#000000" stroke="none">
<path d="M1588 14986 c-14 -8 -71 -17 -125 -21 -54 -4 -107 -13 -118 -19 -11
-7 -39 -15 -62 -18 -23 -3 -55 -15 -72 -27 -16 -12 -36 -21 -45 -21 -9 0 -36
-20 -60 -45 -25 -25 -49 -45 -54 -45 -5 0 -21 -18 -35 -39 -15 -22 -38 -46
-53 -53 -15 -7 -30 -20 -34 -28 -4 -8 -12 -25 -18 -36 -6 -12 -14 -39 -17 -60
-5 -24 -20 -53 -41 -74 -20 -21 -37 -54 -45 -83 -6 -26 -15 -50 -20 -53 -5 -3
-9 -29 -9 -59 0 -49 -24 -115 -42 -115 -13 0 -19 -87 -9 -135 25 -123 34 -155
42 -155 5 0 9 -9 9 -19 0 -11 5 -23 10 -26 6 -3 10 -17 10 -31 0 -14 9 -43 20
-66 11 -23 22 -56 26 -74 3 -18 12 -35 19 -38 7 -2 16 -22 20 -43 3 -21 13
-51 20 -68 8 -16 20 -55 28 -87 8 -31 28 -73 46 -95 42 -52 57 -135 41 -215
-17 -77 -11 -88 44 -88 25 0 47 -4 51 -9 11 -19 -15 -146 -36 -171 -11 -14
-22 -33 -26 -42 -3 -10 -9 -18 -14 -18 -5 0 -9 -5 -9 -12 0 -18 -51 -88 -65
-88 -7 0 -20 -18 -30 -39 -10 -22 -24 -42 -31 -45 -8 -3 -14 -12 -14 -19 0 -8
-11 -26 -25 -41 -14 -15 -25 -36 -25 -46 0 -10 -5 -22 -10 -25 -6 -3 -10 -13
-10 -22 0 -9 -25 -67 -55 -128 -30 -62 -55 -117 -55 -124 0 -6 -4 -11 -10 -11
-5 0 -13 -12 -16 -27 -4 -16 -15 -39 -26 -52 -10 -13 -18 -34 -18 -48 0 -13
-7 -40 -15 -59 -16 -40 -30 -146 -40 -309 -4 -60 -11 -115 -17 -122 -11 -14
-42 -330 -41 -428 1 -106 27 -357 40 -380 6 -11 16 -81 22 -155 7 -74 16 -162
21 -195 5 -33 17 -116 28 -185 10 -69 23 -134 29 -145 6 -11 14 -42 18 -70 4
-27 11 -54 15 -60 5 -5 13 -37 19 -70 6 -32 16 -64 21 -69 6 -6 10 -19 10 -29
0 -10 7 -34 15 -53 36 -82 43 -101 50 -132 4 -18 13 -45 21 -60 8 -15 14 -38
14 -52 1 -14 7 -36 15 -50 10 -17 14 -59 15 -135 0 -132 13 -216 40 -272 11
-23 20 -48 20 -56 0 -8 9 -26 20 -40 25 -32 29 -131 5 -145 -12 -6 -17 -39
-24 -146 -9 -152 -12 -159 -86 -186 -102 -38 -122 -67 -90 -127 10 -18 22 -33
27 -33 12 0 10 -108 -2 -115 -5 -3 -10 -17 -10 -30 0 -13 -4 -26 -9 -29 -5 -4
-12 -25 -16 -49 -4 -23 -11 -46 -15 -52 -4 -5 -13 -27 -20 -48 -7 -22 -18 -51
-26 -65 -8 -17 -14 -59 -14 -108 0 -55 -5 -86 -15 -100 -8 -11 -14 -41 -15
-72 0 -29 -4 -60 -9 -70 -33 -65 -34 -71 -23 -124 7 -29 17 -87 22 -128 6 -41
17 -81 24 -90 8 -8 17 -45 21 -83 4 -37 11 -69 15 -72 5 -3 11 -24 15 -48 4
-23 13 -55 19 -72 7 -16 21 -55 31 -85 9 -30 26 -67 36 -82 11 -14 19 -43 19
-65 1 -39 18 -73 38 -73 47 0 76 -43 53 -79 -7 -10 0 -25 22 -52 23 -27 32
-48 33 -80 2 -38 9 -78 40 -230 5 -20 -1 -33 -25 -57 -38 -38 -39 -50 -2 -63
15 -5 33 -20 40 -32 7 -14 12 -105 14 -247 6 -375 31 -691 73 -922 5 -31 2
-40 -20 -63 -31 -31 -32 -44 -6 -92 28 -52 27 -126 -2 -152 -20 -19 -21 -31
-25 -203 -2 -100 -7 -185 -12 -188 -4 -3 -26 -32 -48 -66 -49 -75 -73 -188
-93 -454 -11 -149 -18 -194 -35 -226 -7 -14 -16 -58 -20 -98 -3 -39 -10 -80
-15 -91 -16 -36 -44 -446 -42 -630 0 -99 5 -384 9 -633 7 -415 9 -455 26 -466
16 -13 16 -16 -4 -62 -11 -27 -25 -60 -31 -74 -6 -14 -15 -34 -22 -45 -7 -13
-11 -82 -12 -185 0 -100 -5 -173 -12 -185 -6 -11 -16 -74 -22 -140 -7 -66 -15
-124 -20 -130 -4 -5 -11 -39 -14 -74 -4 -36 -14 -77 -22 -92 -13 -26 -12 -32
7 -71 25 -50 72 -96 106 -104 12 -4 23 -10 23 -15 0 -18 94 -50 175 -60 44 -5
103 -18 130 -29 28 -10 66 -22 85 -26 19 -3 40 -10 45 -14 6 -4 34 -13 64 -19
30 -6 59 -15 65 -20 6 -4 23 -11 39 -15 15 -4 36 -15 47 -26 11 -11 28 -20 37
-20 10 0 30 -6 45 -14 14 -8 59 -19 100 -26 40 -7 97 -16 127 -21 30 -5 59
-13 65 -18 7 -6 79 -13 162 -16 82 -4 182 -13 223 -21 40 -8 116 -14 168 -14
79 0 103 4 149 25 30 14 54 29 54 34 0 6 15 17 33 26 17 8 61 44 96 80 58 58
64 68 65 108 1 33 -6 52 -27 80 -15 20 -35 37 -43 37 -7 0 -14 4 -14 9 0 5
-15 18 -33 30 -102 65 -184 122 -202 140 -11 11 -31 25 -45 31 -43 19 -70 37
-91 59 -11 11 -24 21 -29 21 -5 0 -15 6 -22 13 -25 23 -77 57 -87 57 -6 0 -15
8 -20 19 -6 10 -27 27 -48 38 -72 37 -103 58 -103 71 0 6 -4 12 -8 12 -16 0
-127 92 -134 112 -12 30 16 83 51 99 17 8 31 17 31 20 0 3 114 9 253 13 372
10 596 24 626 40 14 8 53 26 85 41 105 48 157 116 155 204 -1 81 -10 103 -44
114 -17 5 -46 16 -65 25 -26 12 -76 17 -197 20 -122 3 -165 8 -174 18 -6 8
-17 14 -24 14 -7 0 -18 7 -25 14 -6 8 -28 20 -48 27 -20 7 -39 16 -42 20 -3 5
-28 11 -55 14 -29 4 -59 15 -71 26 -11 11 -34 19 -53 19 -21 0 -40 8 -54 24
-12 13 -33 26 -47 30 -43 12 -90 40 -90 53 0 11 -26 18 -90 25 -21 3 -26 9
-31 45 -3 24 -14 53 -25 65 -40 48 -46 66 -29 98 8 16 15 40 15 54 0 14 5 28
10 31 13 8 13 192 1 199 -5 4 -12 24 -16 45 -4 22 -12 45 -20 51 -18 15 -39
132 -31 174 4 19 15 45 26 59 11 14 20 33 20 42 0 9 7 31 15 48 8 18 22 84 30
147 8 63 19 144 24 180 10 68 4 157 -10 166 -5 3 -9 14 -9 25 0 26 23 99 32
99 3 0 9 18 13 40 4 22 11 42 15 45 5 3 14 32 21 65 6 33 15 60 19 60 4 0 10
18 13 40 3 22 17 54 31 71 14 17 26 35 26 40 0 6 7 17 15 25 8 8 20 34 26 57
7 23 18 49 24 57 7 8 15 44 19 80 3 36 13 85 22 110 9 25 18 76 21 115 6 79
15 95 49 95 13 0 24 4 24 9 0 5 8 12 18 16 11 3 24 23 31 46 7 22 18 42 26 45
8 3 17 19 20 36 4 16 13 41 21 56 7 15 16 47 20 72 4 25 10 50 14 55 10 14 19
72 29 185 4 52 16 118 25 145 13 36 20 104 26 250 12 261 27 422 45 465 8 19
21 103 29 185 9 83 19 170 23 195 8 44 9 45 48 48 22 2 44 10 48 18 4 8 23 20
42 28 18 8 51 31 74 53 22 21 53 49 68 62 37 31 85 121 77 141 -19 44 -44 217
-37 253 7 34 50 49 68 23 7 -9 22 -16 34 -16 24 0 111 81 111 104 0 9 9 20 19
26 11 5 23 20 27 32 4 13 10 25 14 28 3 3 16 26 28 51 27 55 29 141 7 309 -19
151 -21 155 -60 214 -18 28 -36 62 -40 76 -4 14 -19 46 -32 72 -25 49 -23 70
13 106 14 13 12 117 -6 267 -5 44 -14 138 -20 209 -8 89 -16 136 -28 154 -14
22 -17 55 -19 198 -1 95 -6 181 -12 191 -5 11 -15 111 -21 223 -6 113 -14 212
-17 220 -3 8 -12 67 -19 130 -8 63 -18 140 -24 170 -6 30 -19 116 -28 190 -9
74 -20 140 -23 145 -4 6 -10 45 -14 88 -4 42 -12 83 -19 90 -13 13 -44 169
-53 261 -3 37 0 67 7 81 13 24 11 63 -9 175 -16 94 -32 153 -46 170 -7 8 -16
40 -20 70 -4 30 -11 60 -16 66 -5 6 -14 46 -20 90 -6 43 -15 84 -20 89 -4 6
-11 31 -15 55 -3 25 -12 50 -19 55 -6 6 -20 43 -29 83 -10 40 -22 74 -26 77
-4 3 -11 32 -15 65 -5 47 -14 69 -41 102 -19 24 -34 48 -34 54 0 6 -28 53 -62
104 -35 50 -68 99 -73 108 -6 10 -26 33 -44 52 -19 19 -38 47 -43 62 -5 15
-24 38 -42 51 -17 14 -45 45 -61 71 -16 25 -33 46 -38 46 -4 0 -17 20 -28 44
-10 24 -26 46 -34 50 -8 3 -15 14 -15 25 0 11 -9 22 -20 26 -11 3 -20 13 -20
21 0 8 -6 17 -14 20 -8 3 -20 20 -27 37 -7 18 -29 48 -49 67 -19 19 -41 47
-47 62 -7 15 -24 34 -38 44 -27 18 -35 67 -12 81 14 9 31 45 54 113 9 25 18
47 22 50 6 5 39 63 51 90 32 73 68 138 85 151 11 9 31 26 44 38 14 12 38 21
58 21 20 0 36 6 39 14 3 8 24 18 47 21 23 4 61 16 84 26 23 11 48 19 56 19 8
0 31 19 52 41 l37 42 -6 77 c-7 73 -6 79 18 108 20 23 26 41 26 80 0 28 5 54
10 57 6 3 10 36 10 71 0 61 2 68 31 92 62 53 69 62 69 96 0 18 -9 44 -19 58
-11 13 -23 36 -26 51 -4 14 -16 29 -26 32 -10 4 -19 10 -19 15 0 5 -6 15 -13
22 -7 7 -18 24 -25 38 -7 14 -24 43 -37 65 -29 49 -33 126 -9 146 13 10 15 25
11 65 -3 28 -10 60 -15 70 -6 11 -18 37 -27 59 -10 22 -23 53 -31 69 -16 33
-19 87 -5 102 14 15 31 98 25 124 -3 14 -12 48 -19 75 -8 28 -17 67 -20 88 -6
38 -24 60 -117 144 -26 24 -51 51 -57 61 -6 12 -34 23 -88 35 -157 33 -198 39
-240 33 -29 -4 -57 -1 -80 9 -47 20 -217 20 -255 1z m1202 -7852 c0 -37 -5
-61 -15 -71 -9 -8 -17 -14 -19 -12 -6 8 -14 187 -9 193 15 15 43 -57 43 -110z"/>
</g>
</svg>
