<?xml version="1.0" standalone="no"?>
<!DOCTYPE svg PUBLIC "-//W3C//DTD SVG 20010904//EN"
 "http://www.w3.org/TR/2001/REC-SVG-20010904/DTD/svg10.dtd">
<svg version="1.0" xmlns="http://www.w3.org/2000/svg"
 width="866.000000pt" height="1500.000000pt" viewBox="0 0 866.000000 1500.000000"
 preserveAspectRatio="xMidYMid meet">

<g transform="translate(0.000000,1500.000000) scale(0.100000,-0.100000)"
fill="#000000" stroke="none">
<path d="M2735 14581 c-16 -5 -48 -9 -70 -10 -22 -1 -53 -10 -70 -21 -16 -11
-37 -20 -45 -20 -20 0 -79 -30 -115 -58 -15 -12 -34 -22 -41 -22 -7 0 -36 -31
-64 -69 -28 -38 -58 -72 -66 -75 -8 -3 -14 -12 -14 -20 0 -7 -7 -16 -15 -20
-8 -3 -15 -14 -15 -25 0 -11 -5 -23 -11 -26 -6 -4 -25 -29 -42 -55 -18 -26
-59 -83 -92 -126 -63 -82 -85 -118 -85 -139 0 -7 -7 -18 -15 -25 -8 -7 -15
-24 -15 -39 0 -14 -9 -37 -20 -51 -18 -22 -20 -42 -20 -187 0 -226 -19 -279
-140 -402 -21 -21 -45 -41 -54 -44 -9 -4 -16 -11 -16 -17 0 -6 -13 -23 -30
-37 -16 -13 -30 -31 -30 -38 0 -7 -14 -18 -30 -24 -17 -5 -30 -17 -30 -26 0
-9 -6 -29 -14 -43 -8 -15 -18 -49 -24 -77 -6 -27 -16 -70 -22 -95 -16 -61 -5
-325 15 -374 8 -19 15 -48 15 -63 0 -15 7 -37 15 -47 8 -11 15 -31 15 -45 0
-14 9 -41 20 -59 11 -18 20 -44 20 -57 0 -31 34 -35 50 -5 13 25 43 41 58 31
10 -6 10 -30 2 -112 -7 -57 -15 -185 -18 -284 -6 -147 -10 -185 -25 -205 -9
-13 -17 -34 -17 -45 0 -12 -7 -30 -15 -41 -8 -10 -15 -31 -15 -46 0 -15 -4
-30 -10 -33 -5 -3 -10 -14 -10 -24 0 -10 -9 -30 -20 -44 -11 -14 -20 -31 -20
-38 0 -6 -16 -31 -35 -55 -19 -23 -35 -49 -35 -57 0 -8 -7 -20 -15 -27 -8 -7
-15 -19 -15 -26 0 -8 -9 -22 -20 -31 -11 -10 -20 -24 -20 -33 0 -8 -11 -31
-24 -50 -13 -19 -27 -46 -31 -60 -4 -14 -23 -45 -41 -69 -19 -24 -34 -49 -34
-56 0 -7 -6 -18 -14 -24 -15 -13 -46 -99 -46 -128 0 -11 -7 -28 -15 -39 -8
-10 -15 -30 -15 -44 0 -14 -7 -34 -15 -44 -8 -11 -15 -31 -15 -46 0 -14 -9
-42 -20 -63 -29 -53 -34 -246 -8 -274 87 -93 124 -123 152 -123 13 0 28 -4 31
-10 8 -12 103 -60 120 -60 8 0 20 -6 27 -13 15 -15 94 -57 107 -57 5 0 23 -13
39 -28 17 -16 52 -36 79 -46 26 -9 61 -23 76 -31 16 -8 35 -15 44 -15 8 0 26
-9 40 -20 14 -11 35 -20 47 -20 11 0 30 -7 40 -15 11 -8 29 -15 40 -15 11 0
27 -7 36 -15 10 -9 41 -19 69 -24 29 -5 57 -13 64 -20 6 -6 25 -11 41 -11 17
0 45 -9 61 -20 17 -11 43 -20 58 -20 36 0 101 -33 121 -62 9 -12 16 -35 16
-51 0 -15 7 -30 15 -33 8 -4 15 -18 15 -32 0 -14 5 -52 12 -84 10 -50 10 -62
-5 -90 -30 -57 -43 -77 -60 -96 -10 -10 -17 -24 -17 -31 0 -7 -13 -30 -29 -50
-45 -58 -65 -102 -72 -166 -19 -150 -23 -171 -35 -190 -8 -11 -14 -34 -14 -53
0 -19 -6 -35 -14 -38 -8 -3 -18 -19 -21 -36 -4 -16 -13 -41 -21 -56 -8 -15
-14 -34 -14 -43 0 -9 -8 -27 -19 -40 -10 -13 -20 -37 -23 -54 -3 -16 -10 -50
-16 -75 -6 -25 -15 -67 -21 -95 -5 -27 -14 -68 -20 -90 -6 -22 -11 -131 -11
-242 0 -177 2 -208 19 -245 22 -50 39 -113 50 -180 4 -26 15 -56 24 -66 9 -10
17 -32 17 -49 0 -17 6 -48 14 -69 7 -22 16 -97 20 -169 9 -177 -11 -906 -28
-1030 -7 -55 -11 -104 -9 -108 3 -4 26 -7 51 -5 l47 3 3 -210 c1 -123 -2 -237
-9 -275 -6 -36 -14 -105 -18 -155 -5 -51 -15 -103 -24 -120 -10 -16 -17 -40
-17 -51 0 -12 -7 -35 -15 -50 -8 -16 -15 -39 -15 -50 0 -12 -9 -33 -20 -47
-11 -14 -20 -36 -20 -50 0 -13 -7 -30 -15 -37 -8 -7 -15 -23 -15 -36 0 -12 -5
-26 -11 -29 -11 -8 -59 -111 -59 -129 0 -7 -12 -28 -26 -47 -14 -19 -37 -56
-50 -84 -37 -77 -47 -91 -100 -147 -27 -29 -61 -71 -75 -93 -15 -22 -44 -58
-64 -80 -46 -50 -115 -152 -115 -170 0 -8 -4 -17 -10 -20 -5 -3 -10 -17 -10
-30 0 -13 -6 -28 -14 -32 -8 -4 -19 -24 -24 -43 -21 -70 -44 -125 -58 -141 -8
-8 -14 -27 -14 -40 0 -14 -7 -34 -15 -45 -8 -10 -15 -28 -15 -38 0 -11 -7 -27
-15 -36 -8 -9 -19 -36 -24 -61 -16 -75 -33 -132 -47 -167 -8 -18 -14 -44 -14
-58 0 -14 -9 -37 -20 -51 -11 -14 -20 -40 -20 -58 0 -18 -7 -46 -15 -61 -8
-16 -15 -44 -15 -62 0 -18 -8 -47 -17 -65 -17 -34 -31 -91 -39 -167 -3 -25
-12 -59 -20 -77 -8 -17 -14 -44 -14 -60 -1 -15 -7 -39 -15 -53 -8 -14 -14 -37
-15 -52 0 -15 -9 -42 -20 -60 -11 -18 -20 -46 -20 -63 -1 -16 -7 -41 -15 -55
-8 -14 -14 -44 -15 -66 0 -24 -6 -47 -15 -54 -8 -7 -17 -28 -21 -49 -3 -20
-12 -46 -20 -58 -8 -12 -14 -34 -14 -47 0 -18 -9 -30 -29 -40 -29 -16 -41 -34
-41 -65 0 -10 -9 -28 -20 -41 -11 -13 -20 -35 -20 -49 -1 -51 -82 -192 -153
-264 -37 -37 -67 -74 -67 -81 0 -8 -3 -16 -8 -18 -11 -5 -62 -76 -62 -87 0 -6
-8 -15 -19 -20 -10 -6 -21 -25 -24 -43 -3 -18 -11 -54 -18 -81 -11 -41 -10
-55 4 -101 9 -29 17 -66 17 -83 0 -17 8 -38 20 -48 11 -10 20 -30 20 -44 0
-14 7 -44 15 -66 8 -22 14 -72 15 -111 0 -39 7 -93 16 -120 10 -31 19 -105 23
-199 6 -141 7 -150 26 -150 16 0 19 6 17 30 -2 17 -6 148 -8 292 l-5 262 28
36 c25 31 33 35 73 35 40 0 50 -5 87 -43 85 -86 109 -113 138 -157 17 -24 49
-63 73 -86 23 -22 42 -46 42 -52 0 -6 12 -26 28 -44 15 -18 34 -46 42 -62 8
-16 32 -43 54 -60 21 -17 48 -41 60 -52 11 -12 39 -24 61 -27 22 -3 80 -11
128 -18 72 -11 101 -11 160 0 40 8 108 16 152 20 51 4 91 12 108 24 14 9 42
17 62 17 20 0 52 7 72 15 19 8 49 15 65 15 16 0 51 11 78 25 39 20 50 31 50
50 0 19 -10 28 -46 45 -26 11 -54 20 -63 20 -9 0 -34 9 -56 20 -22 11 -60 20
-85 20 -25 1 -56 7 -70 15 -14 8 -39 14 -56 15 -47 0 -95 24 -129 63 -34 39
-106 174 -105 197 0 9 -6 24 -13 35 -7 11 -21 47 -31 80 -9 33 -22 74 -27 91
-5 17 -9 40 -9 51 0 11 -9 28 -19 37 -23 20 -30 63 -38 211 -5 110 11 292 29
328 6 12 5 36 -3 68 -11 43 -11 54 4 85 10 19 22 63 27 97 21 131 27 158 38
169 7 7 12 22 12 34 0 12 7 35 15 50 8 16 15 36 15 44 0 15 38 90 122 245 21
39 43 81 50 95 7 14 18 31 25 38 7 7 13 22 13 32 0 11 9 24 20 30 11 6 20 16
20 22 0 6 6 19 13 27 7 9 20 36 27 61 8 25 36 86 62 137 27 51 48 99 48 107 0
9 8 24 18 34 25 26 52 69 52 85 0 8 8 25 19 38 10 13 22 35 26 49 4 14 20 44
36 68 16 24 29 47 29 52 0 4 11 31 25 58 14 28 25 54 25 60 0 5 7 15 15 22 8
7 15 20 15 30 0 9 9 25 20 35 11 10 20 23 20 29 0 15 34 83 53 105 7 9 22 35
32 59 10 24 27 48 37 53 10 5 18 15 18 22 0 18 79 101 88 93 10 -11 8 -84 -6
-156 -18 -98 -16 -492 3 -554 8 -27 15 -67 15 -88 0 -22 5 -49 12 -61 6 -12
15 -56 20 -97 15 -151 24 -196 41 -220 9 -13 17 -41 17 -60 0 -20 7 -45 15
-56 8 -10 15 -33 15 -49 0 -17 9 -47 20 -68 11 -20 20 -54 20 -75 0 -21 7 -47
15 -58 8 -10 15 -40 15 -65 0 -26 9 -66 20 -90 11 -26 20 -66 20 -97 0 -29 7
-69 15 -89 8 -19 15 -53 15 -75 0 -22 7 -63 15 -91 17 -60 26 -293 18 -446
l-6 -104 -63 -61 c-77 -76 -134 -161 -134 -200 0 -16 -8 -38 -17 -49 -14 -15
-19 -41 -21 -118 -3 -86 -1 -105 17 -139 12 -23 21 -52 21 -66 0 -13 6 -35 14
-47 7 -12 16 -44 20 -71 3 -27 11 -55 18 -63 7 -9 14 -66 18 -136 3 -67 9
-128 14 -135 5 -8 11 -66 15 -130 5 -95 9 -117 21 -117 20 0 25 181 9 320 -6
55 -14 143 -16 195 -5 92 -4 96 22 124 24 26 30 28 73 22 51 -7 102 -30 139
-60 46 -39 113 -104 113 -109 0 -4 20 -26 44 -51 25 -24 57 -63 72 -87 15 -24
33 -51 40 -59 7 -8 21 -24 31 -35 10 -11 29 -42 43 -69 43 -84 77 -119 133
-138 67 -22 232 -24 301 -3 27 8 74 15 105 15 34 0 73 8 100 20 24 11 54 20
66 20 13 0 36 5 52 11 15 6 56 15 91 19 35 5 71 15 81 24 10 9 30 16 46 16 33
0 98 37 92 54 -2 6 -17 15 -33 19 -16 5 -46 17 -66 28 -20 10 -50 19 -65 19
-15 0 -37 7 -47 15 -11 8 -40 15 -66 15 -33 0 -50 5 -63 20 -10 12 -29 20 -49
20 -18 0 -42 7 -52 15 -11 8 -29 15 -41 15 -27 0 -115 81 -115 106 0 10 -9 33
-20 49 -11 17 -20 39 -20 51 0 11 -7 29 -15 40 -8 10 -15 30 -15 43 0 13 -9
38 -19 55 -12 19 -22 61 -26 108 -5 56 -12 81 -26 94 -11 9 -19 29 -19 44 0
14 -7 35 -15 46 -8 10 -15 33 -15 50 0 17 -9 43 -20 57 -11 14 -20 38 -20 54
-1 15 -7 39 -15 53 -8 14 -15 34 -15 45 0 11 -9 38 -20 60 -16 33 -19 62 -20
172 l0 133 -35 14 -35 15 0 70 c0 38 -6 98 -14 133 -8 35 -17 126 -20 203 -3
77 -11 156 -17 175 -6 20 -14 201 -18 431 -4 217 -11 400 -14 406 -9 15 -31
616 -31 863 0 203 12 360 32 397 7 12 12 32 12 44 0 12 8 31 17 42 14 15 19
43 23 126 3 58 11 116 18 128 8 14 12 66 12 148 0 99 4 133 17 158 12 23 18
67 22 162 4 72 10 136 14 143 5 7 12 34 16 60 4 30 12 48 21 49 8 2 45 -21 82
-51 l68 -55 72 25 c40 14 77 30 83 35 5 5 16 9 26 9 9 0 28 9 42 20 14 11 32
20 41 20 29 0 98 43 107 66 12 32 -5 157 -25 186 -9 12 -16 40 -16 61 0 21 -6
50 -14 65 -7 15 -16 51 -19 81 -4 29 -10 58 -15 65 -5 6 -12 43 -15 81 -4 39
-13 88 -21 110 -8 22 -15 74 -16 115 0 41 -7 125 -15 185 -8 61 -15 188 -15
283 0 142 -3 177 -16 197 -12 19 -14 35 -8 62 4 21 6 43 5 48 -9 34 -20 238
-21 400 0 107 -7 233 -15 289 -19 130 -19 377 0 486 8 47 15 114 15 150 0 44
6 75 18 95 15 26 17 60 17 270 0 165 -4 253 -13 282 -7 23 -16 93 -21 155 -5
62 -14 126 -20 141 -6 16 -11 49 -11 75 -1 26 -9 65 -20 87 -11 22 -20 54 -20
70 0 17 -7 41 -15 55 -8 14 -14 38 -15 54 0 16 -8 43 -19 60 -11 19 -21 61
-25 106 -4 51 -13 84 -26 102 -11 15 -20 38 -20 51 0 14 -7 41 -15 60 -8 20
-15 52 -15 70 0 19 -10 56 -22 83 -21 45 -22 63 -21 226 1 127 6 194 18 240
22 85 30 216 16 248 -19 40 -34 63 -66 98 -16 19 -32 40 -35 47 -3 7 -26 35
-51 62 -25 26 -48 56 -52 66 -3 9 -12 17 -19 17 -7 0 -28 22 -46 49 -18 26
-78 94 -133 151 -54 56 -99 104 -99 107 0 3 -24 29 -52 57 -62 61 -98 103 -98
115 0 4 -9 16 -20 26 -12 11 -20 31 -20 50 0 18 -7 38 -15 45 -8 7 -15 20 -15
30 0 9 -9 29 -20 43 -11 14 -20 34 -20 45 0 10 -9 30 -21 43 -11 13 -27 36
-35 51 -8 15 -20 31 -26 35 -7 4 -37 34 -65 66 -56 62 -70 111 -38 137 8 7 15
18 15 25 0 6 9 22 20 35 11 13 20 28 20 33 0 6 19 39 42 73 48 74 83 93 132
76 18 -7 43 -12 56 -12 13 0 32 -7 42 -16 12 -11 42 -19 91 -22 l73 -4 27 35
c21 28 28 50 32 98 4 55 8 67 40 99 19 20 35 46 35 59 0 12 7 29 15 37 9 10
15 34 15 63 0 50 9 60 70 77 14 3 31 11 38 16 17 14 15 93 -2 107 -8 7 -17 27
-20 45 -4 19 -13 39 -21 46 -10 8 -15 31 -15 63 0 43 5 55 35 88 19 22 35 44
35 49 0 6 10 24 21 40 22 28 22 29 3 57 -16 24 -18 53 -21 228 -2 165 -5 202
-18 211 -8 6 -15 16 -15 21 0 5 -9 18 -20 28 -11 10 -20 22 -20 27 0 5 -11 24
-25 42 -14 18 -25 36 -25 41 0 16 -170 175 -187 175 -10 0 -24 9 -31 20 -7 11
-21 20 -31 20 -10 0 -24 7 -31 15 -7 8 -22 15 -35 15 -12 0 -30 8 -39 19 -12
13 -37 20 -89 25 -145 13 -203 15 -232 7z m-723 -3892 c11 -29 22 -65 25 -79
3 -14 14 -36 24 -49 11 -13 19 -28 19 -33 0 -5 7 -16 15 -24 8 -9 15 -25 15
-37 0 -11 8 -30 18 -41 10 -12 29 -46 41 -76 13 -30 29 -62 36 -70 8 -8 17
-27 20 -42 6 -24 4 -28 -13 -28 -12 0 -25 6 -29 13 -9 13 -37 32 -70 46 -11 6
-24 14 -27 19 -3 6 -25 20 -48 32 -24 12 -47 27 -53 34 -10 13 -28 23 -122 70
-31 15 -53 33 -53 42 0 19 33 81 78 146 17 26 32 52 32 57 0 5 7 15 16 22 9 7
20 24 25 37 13 35 30 23 51 -39z"/>
</g>
</svg>
